<svg xmlns="http://www.w3.org/2000/svg" id="e6261456-2817-4b46-b1d6-22c62004c5a0" data-name="Calque 1" width="466.37" height="91.9" viewBox="0 0 466.37 91.9"><path d="M314.82,28.84a35.33,35.33,0,0,1-12.49,47.28c-11.08,6.72-22.65,7.07-34.4,1.61A2.87,2.87,0,0,1,266,75.49a2.58,2.58,0,0,1,1.07-2.62,2.79,2.79,0,0,1,2.91-.24,54.29,54.29,0,0,0,6.83,2.51c19.71,4.81,38.59-11.51,36.79-31.73a31.31,31.31,0,0,0-3.37-11.58c-.23-.46-.49-.46-.9-.45a8,8,0,1,1,7.38-8.85C317,24.84,316.58,26.08,314.82,28.84Z" style="fill: #fff"></path><path d="M298.29,46a14.56,14.56,0,1,1-14.53-14.56A14.56,14.56,0,0,1,298.29,46Z" style="fill: #fff"></path><path d="M252.67,63.12a35.53,35.53,0,0,1,26.5-52.38A34.9,34.9,0,0,1,299.27,14,2.78,2.78,0,0,1,301,17a2.6,2.6,0,0,1-2.34,2.28,4.37,4.37,0,0,1-1.93-.42,30,30,0,0,0-40,40.19,5.19,5.19,0,0,1,.35.71c.18.64.56.78,1.22.77A7.3,7.3,0,0,1,265.47,66a7.36,7.36,0,1,1-13.2-2.33Z" style="fill: #fff"></path><path d="M254.62,13.2A3.63,3.63,0,1,1,251,9.57,3.57,3.57,0,0,1,254.62,13.2Z" style="fill: #fff"></path><path d="M431.44,42.61A3.63,3.63,0,1,1,427.85,39,3.57,3.57,0,0,1,431.44,42.61Z" style="fill: #fff"></path><path d="M422.32,67.75a3.63,3.63,0,1,1-3.59-3.63A3.56,3.56,0,0,1,422.32,67.75Z" style="fill: #fff"></path><path d="M316.44,75.08a3.57,3.57,0,0,1,3.67,3.55,3.63,3.63,0,1,1-3.67-3.55Z" style="fill: #fff"></path><g><path d="M416,68.94V66.56c0-.46.59-.83,1.32-.83h3.05c.73,0,1.32.37,1.32.83v2.38c0,.46-.59.83-1.32.83h-3.05C416.55,69.77,416,69.4,416,68.94Z" style="fill: #fff"></path><path d="M425.11,43.69V41.51c0-.46.59-.83,1.32-.83h2.76c.73,0,1.33.37,1.33.83v2.18c0,.46-.6.83-1.33.83h-2.76C425.7,44.52,425.11,44.15,425.11,43.69Zm0,25.25V49.64c0-.45.59-.82,1.32-.82h2.76c.73,0,1.33.37,1.33.82v19.3c0,.46-.6.83-1.33.83h-2.76C425.7,69.77,425.11,69.4,425.11,68.94Z" style="fill: #fff"></path><path d="M443,70.07a10.75,10.75,0,0,1-6.29-1.59A5.19,5.19,0,0,1,434.46,64V54.43A5,5,0,0,1,436.71,50,10.91,10.91,0,0,1,443,48.45,10.64,10.64,0,0,1,449.23,50a5.09,5.09,0,0,1,2.19,4.42v9.63a5.15,5.15,0,0,1-2.19,4.44A10.56,10.56,0,0,1,443,70.07Zm-.06-3.73a3.6,3.6,0,0,0,2.26-.64,2.17,2.17,0,0,0,.81-1.81v-9.3a2.14,2.14,0,0,0-.81-1.77,4.35,4.35,0,0,0-4.51,0,2.12,2.12,0,0,0-.82,1.77v9.3a2.15,2.15,0,0,0,.82,1.81A3.62,3.62,0,0,0,442.94,66.34Z" style="fill: #fff"></path></g><path d="M31.46,70.1a27.17,27.17,0,0,1-9-1.3A11.66,11.66,0,0,1,16.86,65,10,10,0,0,1,15,58.79V57.23c0-.45.59-.82,1.32-.82h6.22c.73,0,1.32.37,1.32.82v1.33a4.62,4.62,0,0,0,2,4A9.76,9.76,0,0,0,31.46,64,9.26,9.26,0,0,0,37,62.58a4.71,4.71,0,0,0,1.91-4v-4.2A4,4,0,0,0,37.5,51.2a11.66,11.66,0,0,0-3.57-2.07c-1.46-.57-3-1.13-4.71-1.66s-3.35-1.11-5-1.75a24.49,24.49,0,0,1-4.6-2.33A11,11,0,0,1,16.26,40a9.44,9.44,0,0,1-1.26-5V32.16a9.4,9.4,0,0,1,4.24-8.28Q23.49,21,31.42,21q7.74,0,11.84,2.92a9.66,9.66,0,0,1,4.11,8.36V34c0,.45-.59.82-1.32.82H39.83c-.73,0-1.32-.37-1.32-.82V32.55a4.76,4.76,0,0,0-1.82-4,8.55,8.55,0,0,0-5.27-1.39,10,10,0,0,0-5.62,1.32,4.28,4.28,0,0,0-1.94,3.77v3a4.22,4.22,0,0,0,1.49,3.39,12.08,12.08,0,0,0,3.9,2.12q2.4.84,5.06,1.7,2.37.77,4.73,1.61a22.6,22.6,0,0,1,4.34,2.08,9,9,0,0,1,4.36,8.26v4.4a9.62,9.62,0,0,1-4.2,8.39Q39.34,70.1,31.46,70.1Z" style="fill: #fff"></path><path d="M72.93,70.1q-7.47,0-11.43-2.91a9.77,9.77,0,0,1-4-8.4V22.33c0-.46.6-.83,1.33-.83h6.21c.73,0,1.33.37,1.33.83V59.05a4.28,4.28,0,0,0,1.7,3.66A7.91,7.91,0,0,0,72.93,64a8.13,8.13,0,0,0,4.92-1.27,4.31,4.31,0,0,0,1.7-3.66V22.33c0-.46.59-.83,1.32-.83h6.22c.73,0,1.32.37,1.32.83V58.79a9.76,9.76,0,0,1-4,8.4C81.77,69.13,77.93,70.1,72.93,70.1Z" style="fill: #fff"></path><path d="M126,26.55a11,11,0,0,0-5.15-3.76,23.08,23.08,0,0,0-8.19-1.29H96.4c-.73,0-1.32.37-1.32.83V68.78c0,.46.59.83,1.32.83h6.22c.73,0,1.32-.37,1.32-.83v-17c0-.45.6-.82,1.33-.82h7.35a23.14,23.14,0,0,0,8.14-1.28A11,11,0,0,0,125.94,46a9.5,9.5,0,0,0,1.79-5.82V32.52A10,10,0,0,0,126,26.55ZM118.68,40a4.56,4.56,0,0,1-1.56,3.67A6.47,6.47,0,0,1,112.81,45h-7.54c-.73,0-1.33-.37-1.33-.82V28.28c0-.45.6-.82,1.33-.82h7.54a6.38,6.38,0,0,1,4.31,1.35,4.8,4.8,0,0,1,1.56,3.81Z" style="fill: #fff"></path><path d="M162.23,26.63v-4.3c0-.46-.59-.83-1.32-.83H134.45c-.73,0-1.32.37-1.32.83V68.78c0,.46.59.83,1.32.83h26.46c.73,0,1.32-.37,1.32-.83v-4.3c0-.46-.59-.83-1.32-.83h-17.6c-.73,0-1.32-.37-1.32-.82V49.52c0-.45.59-.82,1.32-.82h15.27c.73,0,1.32-.37,1.32-.83v-4.3c0-.46-.59-.83-1.32-.83H143.31c-.73,0-1.32-.37-1.32-.82V28.28c0-.45.59-.82,1.32-.82h17.6C161.64,27.46,162.23,27.09,162.23,26.63Z" style="fill: #fff"></path><path d="M199.68,69.61c.88,0,1.52-.53,1.28-1.06L191.43,48l.2-.05a12.52,12.52,0,0,0,5.87-3.84,9.36,9.36,0,0,0,2-6.09V32.39a8.92,8.92,0,0,0-2-5.92,12.45,12.45,0,0,0-5.87-3.73,30.14,30.14,0,0,0-9.31-1.27H167.78c-.73,0-1.32.37-1.32.83V68.78c0,.46.59.83,1.32.83H174c.73,0,1.32-.37,1.32-.83V50.09c0-.46.59-.83,1.33-.83h5.67l.59,0L191.48,69a1.36,1.36,0,0,0,1.27.61ZM175.32,28.25c0-.46.59-.83,1.33-.83h6.46a9.16,9.16,0,0,1,5.58,1.49,4.94,4.94,0,0,1,2,4.17V38a4.54,4.54,0,0,1-2,3.92,9.53,9.53,0,0,1-5.58,1.41h-6.46c-.74,0-1.33-.37-1.33-.83Z" style="fill: #fff"></path><path d="M231.7,22.33v27.8c0,.95-2.13,1.15-2.59.25l-14.24-28.3a1.41,1.41,0,0,0-1.26-.58h-5.45c-.73,0-1.32.37-1.32.83V68.75c0,.45.59.82,1.32.82H214c.73,0,1.32-.37,1.32-.82V41.89c0-.94,2.12-1.15,2.58-.25L232,69a1.43,1.43,0,0,0,1.26.57h5.55c.73,0,1.32-.37,1.32-.82V22.33c0-.46-.59-.83-1.32-.83H233C232.29,21.5,231.7,21.87,231.7,22.33Z" style="fill: #fff"></path><path d="M336.42,68.92,323.26,22.47c-.14-.5.48-1,1.31-1h6.52c.65,0,1.21.3,1.31.7l7.52,30.86c.23.93,2.39.93,2.62,0l7.52-30.86c.1-.4.65-.7,1.31-.7h6.52c.82,0,1.44.47,1.3,1L346,68.92a1.29,1.29,0,0,1-1.3.69h-7A1.29,1.29,0,0,1,336.42,68.92Z" style="fill: #fff"></path><path d="M371.06,22.33V68.78c0,.46-.59.83-1.32.83h-6.22c-.73,0-1.32-.37-1.32-.83V22.33c0-.46.59-.83,1.32-.83h6.22C370.47,21.5,371.06,21.87,371.06,22.33Z" style="fill: #fff"></path><path d="M404.4,69.61h6.77c.84,0,1.47-.48,1.3-1L397.34,22.16a1.34,1.34,0,0,0-1.3-.66h-6a1.33,1.33,0,0,0-1.3.66L373.65,68.62c-.16.51.46,1,1.3,1h6.78a1.29,1.29,0,0,0,1.3-.69l2.43-9.11a1.3,1.3,0,0,1,1.31-.69h12.59a1.29,1.29,0,0,1,1.3.69l2.43,9.11A1.3,1.3,0,0,0,404.4,69.61ZM387.49,52.24l4.27-16c.24-.92,2.36-.92,2.61,0l4.27,16c.13.5-.49,1-1.31,1h-8.54C388,53.2,387.35,52.74,387.49,52.24Z" style="fill: #fff"></path></svg>