<svg xmlns="http://www.w3.org/2000/svg" id="bd089953-72ad-414d-882b-8346c7e8c80f" data-name="Calque 1" width="500" height="500" viewBox="0 0 500 500"><g><path d="M431,149.92c52.88,95.53,22.55,218-72.88,275.93C293.45,465.08,226,467.14,157.38,435.3c-5.74-2.67-10.15-6.45-11.08-13.08-.88-6.25,1.08-11.57,6.25-15.34s10.86-3.81,17-1.38c13.16,5.22,26.19,11.29,39.86,14.63C324.41,448.23,434.6,353,424.1,235a182.84,182.84,0,0,0-19.63-67.58c-1.35-2.66-2.9-2.68-5.25-2.59-25.5.89-45.41-15.73-49-40.83C346.61,99,365.52,75.31,391.35,72.35c25-2.87,48.65,16.1,50.9,40.8C443.48,126.63,441.27,133.82,431,149.92Z" style="fill: #fff"></path><path d="M334.55,249.8a84.94,84.94,0,1,1-84.79-85A84.94,84.94,0,0,1,334.55,249.8Z" style="fill: #fff"></path><path d="M68.33,350C50.63,317.47,42,283,42.57,246.34c1.65-102.61,78.61-188.92,180.37-202A203.6,203.6,0,0,1,340.27,63.51c7.45,3.62,11.24,10.24,10.06,17.28s-6.52,12.89-13.62,13.28a24.46,24.46,0,0,1-11.26-2.44A175.74,175.74,0,0,0,125.68,126C73.07,178.4,59.47,259.29,92,326.21a27.38,27.38,0,0,1,2,4.15c1.08,3.72,3.29,4.56,7.14,4.48A42.63,42.63,0,0,1,143,367,42.94,42.94,0,1,1,66,353.39C66.82,352.13,67.72,350.89,68.33,350Z" style="fill: #fff"></path><path d="M79.66,58.7a21.19,21.19,0,1,1-21-21.23A20.87,20.87,0,0,1,79.66,58.7Z" style="fill: #fff"></path><path d="M440.47,419.78a21.19,21.19,0,1,1,.27,42.38,21.19,21.19,0,0,1-.27-42.38Z" style="fill: #fff"></path></g></svg>